<?xml version="1.0" encoding="UTF-8" standalone="no"?>
<!DOCTYPE svg PUBLIC "-//W3C//DTD SVG 1.1//EN"
 "http://www.w3.org/Graphics/SVG/1.1/DTD/svg11.dtd">
<!-- Generated by graphviz version 2.47.0 (20210316.0004)
 -->
<!-- Title: dependencies Pages: 1 -->
<svg width="1578pt" height="284pt"
 viewBox="0.00 0.00 1578.00 284.00" xmlns="http://www.w3.org/2000/svg" xmlns:xlink="http://www.w3.org/1999/xlink">
<g id="graph0" class="graph" transform="scale(1 1) rotate(0) translate(4 280)">
<title>dependencies</title>
<polygon fill="white" stroke="transparent" points="-4,4 -4,-280 1574,-280 1574,4 -4,4"/>
<text text-anchor="start" x="764.01" y="-42.4" font-family="Times-12" font-weight="bold" font-size="14.00">Legend</text>
<polygon fill="#ffffb3" stroke="transparent" points="551,-10 551,-30 571,-30 571,-10 551,-10"/>
<text text-anchor="start" x="574.63" y="-15.4" font-family="Times-12" font-size="14.00"> &#160;Declarations</text>
<polygon fill="#8dd3c7" stroke="transparent" points="664,-10 664,-30 684,-30 684,-10 664,-10"/>
<text text-anchor="start" x="687.73" y="-15.4" font-family="Times-12" font-size="14.00"> &#160;Module</text>
<polygon fill="#80b1d3" stroke="transparent" points="750,-10 750,-30 770,-30 770,-10 750,-10"/>
<text text-anchor="start" x="773.78" y="-15.4" font-family="Times-12" font-size="14.00"> &#160;Bootstrap</text>
<polygon fill="#fdb462" stroke="transparent" points="847,-10 847,-30 867,-30 867,-10 847,-10"/>
<text text-anchor="start" x="870.67" y="-15.4" font-family="Times-12" font-size="14.00"> &#160;Providers</text>
<polygon fill="#fb8072" stroke="transparent" points="943,-10 943,-30 963,-30 963,-10 943,-10"/>
<text text-anchor="start" x="966.73" y="-15.4" font-family="Times-12" font-size="14.00"> &#160;Exports</text>
<g id="clust1" class="cluster">
<title>cluster_DashboardModule</title>
<polygon fill="none" stroke="black" stroke-dasharray="1,5" points="8,-70 8,-268 1562,-268 1562,-70 8,-70"/>
</g>
<g id="clust10" class="cluster">
<title>cluster_DashboardModule_imports</title>
<polygon fill="none" stroke="black" points="1131,-78 1131,-130 1554,-130 1554,-78 1131,-78"/>
</g>
<g id="clust2" class="cluster">
<title>cluster_DashboardModule_declarations</title>
<polygon fill="none" stroke="black" points="16,-78 16,-130 1123,-130 1123,-78 16,-78"/>
</g>
<g id="clust11" class="cluster">
<title>cluster_DashboardModule_exports</title>
<polygon fill="none" stroke="black" points="630,-208 630,-260 925,-260 925,-208 630,-208"/>
</g>
<!-- ApiErrorComponent -->
<g id="node1" class="node">
<title>ApiErrorComponent</title>
<polygon fill="#ffffb3" stroke="black" points="1114.86,-122 983.14,-122 983.14,-86 1114.86,-86 1114.86,-122"/>
<text text-anchor="middle" x="1049" y="-99.8" font-family="Times,serif" font-size="14.00">ApiErrorComponent</text>
</g>
<!-- DashboardModule -->
<g id="node8" class="node">
<title>DashboardModule</title>
<polygon fill="#8dd3c7" stroke="black" points="835.19,-187 832.19,-191 811.19,-191 808.19,-187 714.81,-187 714.81,-151 835.19,-151 835.19,-187"/>
<text text-anchor="middle" x="775" y="-164.8" font-family="Times,serif" font-size="14.00">DashboardModule</text>
</g>
<!-- ApiErrorComponent&#45;&gt;DashboardModule -->
<g id="edge1" class="edge">
<title>ApiErrorComponent&#45;&gt;DashboardModule</title>
<path fill="none" stroke="black" d="M1049,-122.01C1049,-138.05 1049,-159 1049,-159 1049,-159 845.13,-159 845.13,-159"/>
<polygon fill="black" stroke="black" points="845.13,-155.5 835.13,-159 845.13,-162.5 845.13,-155.5"/>
</g>
<!-- ConfirmationDialogComponent -->
<g id="node2" class="node">
<title>ConfirmationDialogComponent</title>
<polygon fill="#ffffb3" stroke="black" points="965.37,-122 770.63,-122 770.63,-86 965.37,-86 965.37,-122"/>
<text text-anchor="middle" x="868" y="-99.8" font-family="Times,serif" font-size="14.00">ConfirmationDialogComponent</text>
</g>
<!-- ConfirmationDialogComponent&#45;&gt;DashboardModule -->
<g id="edge2" class="edge">
<title>ConfirmationDialogComponent&#45;&gt;DashboardModule</title>
<path fill="none" stroke="black" d="M802.83,-122.11C802.83,-122.11 802.83,-140.99 802.83,-140.99"/>
<polygon fill="black" stroke="black" points="799.33,-140.99 802.83,-150.99 806.33,-140.99 799.33,-140.99"/>
</g>
<!-- DashboardComponent -->
<g id="node3" class="node">
<title>DashboardComponent</title>
<polygon fill="#ffffb3" stroke="black" points="752.97,-122 611.03,-122 611.03,-86 752.97,-86 752.97,-122"/>
<text text-anchor="middle" x="682" y="-99.8" font-family="Times,serif" font-size="14.00">DashboardComponent</text>
</g>
<!-- DashboardComponent&#45;&gt;DashboardModule -->
<g id="edge3" class="edge">
<title>DashboardComponent&#45;&gt;DashboardModule</title>
<path fill="none" stroke="black" d="M733.95,-122.11C733.95,-122.11 733.95,-140.99 733.95,-140.99"/>
<polygon fill="black" stroke="black" points="730.45,-140.99 733.95,-150.99 737.45,-140.99 730.45,-140.99"/>
</g>
<!-- HeaderComponent -->
<g id="node4" class="node">
<title>HeaderComponent</title>
<polygon fill="#ffffb3" stroke="black" points="592.74,-122 471.26,-122 471.26,-86 592.74,-86 592.74,-122"/>
<text text-anchor="middle" x="532" y="-99.8" font-family="Times,serif" font-size="14.00">HeaderComponent</text>
</g>
<!-- HeaderComponent&#45;&gt;DashboardModule -->
<g id="edge4" class="edge">
<title>HeaderComponent&#45;&gt;DashboardModule</title>
<path fill="none" stroke="black" d="M532,-122.01C532,-138.05 532,-159 532,-159 532,-159 704.62,-159 704.62,-159"/>
<polygon fill="black" stroke="black" points="704.62,-162.5 714.62,-159 704.62,-155.5 704.62,-162.5"/>
</g>
<!-- SearchComponent -->
<g id="node5" class="node">
<title>SearchComponent</title>
<polygon fill="#ffffb3" stroke="black" points="452.92,-122 333.08,-122 333.08,-86 452.92,-86 452.92,-122"/>
<text text-anchor="middle" x="393" y="-99.8" font-family="Times,serif" font-size="14.00">SearchComponent</text>
</g>
<!-- SearchComponent&#45;&gt;DashboardModule -->
<g id="edge5" class="edge">
<title>SearchComponent&#45;&gt;DashboardModule</title>
<path fill="none" stroke="black" d="M393,-122.27C393,-140.56 393,-166 393,-166 393,-166 704.89,-166 704.89,-166"/>
<polygon fill="black" stroke="black" points="704.89,-169.5 714.89,-166 704.89,-162.5 704.89,-169.5"/>
</g>
<!-- ServerErrorComponent -->
<g id="node6" class="node">
<title>ServerErrorComponent</title>
<polygon fill="#ffffb3" stroke="black" points="315.9,-122 168.1,-122 168.1,-86 315.9,-86 315.9,-122"/>
<text text-anchor="middle" x="242" y="-99.8" font-family="Times,serif" font-size="14.00">ServerErrorComponent</text>
</g>
<!-- ServerErrorComponent&#45;&gt;DashboardModule -->
<g id="edge6" class="edge">
<title>ServerErrorComponent&#45;&gt;DashboardModule</title>
<path fill="none" stroke="black" d="M242,-122.13C242,-142.57 242,-173 242,-173 242,-173 704.89,-173 704.89,-173"/>
<polygon fill="black" stroke="black" points="704.89,-176.5 714.89,-173 704.89,-169.5 704.89,-176.5"/>
</g>
<!-- SidenavComponent -->
<g id="node7" class="node">
<title>SidenavComponent</title>
<polygon fill="#ffffb3" stroke="black" points="150.44,-122 23.56,-122 23.56,-86 150.44,-86 150.44,-122"/>
<text text-anchor="middle" x="87" y="-99.8" font-family="Times,serif" font-size="14.00">SidenavComponent</text>
</g>
<!-- SidenavComponent&#45;&gt;DashboardModule -->
<g id="edge7" class="edge">
<title>SidenavComponent&#45;&gt;DashboardModule</title>
<path fill="none" stroke="black" d="M87,-122.01C87,-144.49 87,-180 87,-180 87,-180 704.85,-180 704.85,-180"/>
<polygon fill="black" stroke="black" points="704.85,-183.5 714.85,-180 704.85,-176.5 704.85,-183.5"/>
</g>
<!-- ApiErrorComponent  -->
<g id="node12" class="node">
<title>ApiErrorComponent </title>
<polygon fill="#fb8072" stroke="black" points="916.86,-252 781.14,-252 781.14,-216 916.86,-216 916.86,-252"/>
<text text-anchor="middle" x="849" y="-229.8" font-family="Times,serif" font-size="14.00">ApiErrorComponent </text>
</g>
<!-- DashboardModule&#45;&gt;ApiErrorComponent  -->
<g id="edge11" class="edge">
<title>DashboardModule&#45;&gt;ApiErrorComponent </title>
<path fill="none" stroke="black" stroke-dasharray="5,2" d="M808.21,-187.11C808.21,-187.11 808.21,-205.99 808.21,-205.99"/>
<polygon fill="black" stroke="black" points="804.71,-205.99 808.21,-215.99 811.71,-205.99 804.71,-205.99"/>
</g>
<!-- HeaderComponent  -->
<g id="node13" class="node">
<title>HeaderComponent </title>
<polygon fill="#fb8072" stroke="black" points="763.74,-252 638.26,-252 638.26,-216 763.74,-216 763.74,-252"/>
<text text-anchor="middle" x="701" y="-229.8" font-family="Times,serif" font-size="14.00">HeaderComponent </text>
</g>
<!-- DashboardModule&#45;&gt;HeaderComponent  -->
<g id="edge12" class="edge">
<title>DashboardModule&#45;&gt;HeaderComponent </title>
<path fill="none" stroke="black" stroke-dasharray="5,2" d="M739.26,-187.11C739.26,-187.11 739.26,-205.99 739.26,-205.99"/>
<polygon fill="black" stroke="black" points="735.76,-205.99 739.26,-215.99 742.76,-205.99 735.76,-205.99"/>
</g>
<!-- DashboardRoutingModule -->
<g id="node9" class="node">
<title>DashboardRoutingModule</title>
<polygon fill="#8dd3c7" stroke="black" points="1545.81,-122 1542.81,-126 1521.81,-126 1518.81,-122 1380.19,-122 1380.19,-86 1545.81,-86 1545.81,-122"/>
<text text-anchor="middle" x="1463" y="-99.8" font-family="Times,serif" font-size="14.00">DashboardRoutingModule</text>
</g>
<!-- DashboardRoutingModule&#45;&gt;DashboardModule -->
<g id="edge8" class="edge">
<title>DashboardRoutingModule&#45;&gt;DashboardModule</title>
<path fill="none" stroke="black" d="M1463,-122.01C1463,-144.49 1463,-180 1463,-180 1463,-180 845.15,-180 845.15,-180"/>
<polygon fill="black" stroke="black" points="845.15,-176.5 835.15,-180 845.15,-183.5 845.15,-176.5"/>
</g>
<!-- MaterialModule -->
<g id="node10" class="node">
<title>MaterialModule</title>
<polygon fill="#8dd3c7" stroke="black" points="1362.47,-122 1359.47,-126 1338.47,-126 1335.47,-122 1255.53,-122 1255.53,-86 1362.47,-86 1362.47,-122"/>
<text text-anchor="middle" x="1309" y="-99.8" font-family="Times,serif" font-size="14.00">MaterialModule</text>
</g>
<!-- MaterialModule&#45;&gt;DashboardModule -->
<g id="edge9" class="edge">
<title>MaterialModule&#45;&gt;DashboardModule</title>
<path fill="none" stroke="black" d="M1309,-122.13C1309,-142.57 1309,-173 1309,-173 1309,-173 845.22,-173 845.22,-173"/>
<polygon fill="black" stroke="black" points="845.22,-169.5 835.22,-173 845.22,-176.5 845.22,-169.5"/>
</g>
<!-- SharedModule -->
<g id="node11" class="node">
<title>SharedModule</title>
<polygon fill="#8dd3c7" stroke="black" points="1237.42,-122 1234.42,-126 1213.42,-126 1210.42,-122 1138.58,-122 1138.58,-86 1237.42,-86 1237.42,-122"/>
<text text-anchor="middle" x="1188" y="-99.8" font-family="Times,serif" font-size="14.00">SharedModule</text>
</g>
<!-- SharedModule&#45;&gt;DashboardModule -->
<g id="edge10" class="edge">
<title>SharedModule&#45;&gt;DashboardModule</title>
<path fill="none" stroke="black" d="M1188,-122.27C1188,-140.56 1188,-166 1188,-166 1188,-166 845.5,-166 845.5,-166"/>
<polygon fill="black" stroke="black" points="845.5,-162.5 835.5,-166 845.5,-169.5 845.5,-162.5"/>
</g>
</g>
</svg>
