<?xml version="1.0" encoding="UTF-8" standalone="no"?>
<!DOCTYPE svg PUBLIC "-//W3C//DTD SVG 1.1//EN"
 "http://www.w3.org/Graphics/SVG/1.1/DTD/svg11.dtd">
<!-- Generated by graphviz version 2.47.0 (20210316.0004)
 -->
<!-- Title: dependencies Pages: 1 -->
<svg width="6221pt" height="366pt"
 viewBox="0.00 0.00 6221.00 366.00" xmlns="http://www.w3.org/2000/svg" xmlns:xlink="http://www.w3.org/1999/xlink">
<g id="graph0" class="graph" transform="scale(1 1) rotate(0) translate(4 362)">
<title>dependencies</title>
<polygon fill="white" stroke="transparent" points="-4,4 -4,-362 6217,-362 6217,4 -4,4"/>
<text text-anchor="start" x="3085.51" y="-42.4" font-family="Times-12" font-weight="bold" font-size="14.00">Legend</text>
<polygon fill="#ffffb3" stroke="transparent" points="2872.5,-10 2872.5,-30 2892.5,-30 2892.5,-10 2872.5,-10"/>
<text text-anchor="start" x="2896.13" y="-15.4" font-family="Times-12" font-size="14.00"> &#160;Declarations</text>
<polygon fill="#8dd3c7" stroke="transparent" points="2985.5,-10 2985.5,-30 3005.5,-30 3005.5,-10 2985.5,-10"/>
<text text-anchor="start" x="3009.23" y="-15.4" font-family="Times-12" font-size="14.00"> &#160;Module</text>
<polygon fill="#80b1d3" stroke="transparent" points="3071.5,-10 3071.5,-30 3091.5,-30 3091.5,-10 3071.5,-10"/>
<text text-anchor="start" x="3095.28" y="-15.4" font-family="Times-12" font-size="14.00"> &#160;Bootstrap</text>
<polygon fill="#fdb462" stroke="transparent" points="3168.5,-10 3168.5,-30 3188.5,-30 3188.5,-10 3168.5,-10"/>
<text text-anchor="start" x="3192.17" y="-15.4" font-family="Times-12" font-size="14.00"> &#160;Providers</text>
<polygon fill="#fb8072" stroke="transparent" points="3264.5,-10 3264.5,-30 3284.5,-30 3284.5,-10 3264.5,-10"/>
<text text-anchor="start" x="3288.23" y="-15.4" font-family="Times-12" font-size="14.00"> &#160;Exports</text>
<g id="clust1" class="cluster">
<title>cluster_AppModule</title>
<polygon fill="none" stroke="black" stroke-dasharray="1,5" points="5408,-70 5408,-282 5823,-282 5823,-70 5408,-70"/>
</g>
<g id="clust2" class="cluster">
<title>cluster_AppModule_declarations</title>
<polygon fill="none" stroke="black" points="5693,-78 5693,-130 5815,-130 5815,-78 5693,-78"/>
</g>
<g id="clust4" class="cluster">
<title>cluster_AppModule_imports</title>
<polygon fill="none" stroke="black" points="5416,-78 5416,-130 5685,-130 5685,-78 5416,-78"/>
</g>
<g id="clust6" class="cluster">
<title>cluster_AppModule_bootstrap</title>
<polygon fill="none" stroke="black" points="5551,-222 5551,-274 5675,-274 5675,-222 5551,-222"/>
</g>
<g id="clust14" class="cluster">
<title>cluster_CartModule</title>
<polygon fill="none" stroke="black" stroke-dasharray="1,5" points="2594,-214 2594,-342 3176,-342 3176,-214 2594,-214"/>
</g>
<g id="clust15" class="cluster">
<title>cluster_CartModule_declarations</title>
<polygon fill="none" stroke="black" points="2602,-222 2602,-274 2878,-274 2878,-222 2602,-222"/>
</g>
<g id="clust18" class="cluster">
<title>cluster_CartModule_imports</title>
<polygon fill="none" stroke="black" points="2886,-222 2886,-274 3168,-274 3168,-222 2886,-222"/>
</g>
<g id="clust28" class="cluster">
<title>cluster_CloudOptionsModule</title>
<polygon fill="none" stroke="black" stroke-dasharray="1,5" points="1575,-138 1575,-274 2384,-274 2384,-138 1575,-138"/>
</g>
<g id="clust29" class="cluster">
<title>cluster_CloudOptionsModule_declarations</title>
<polygon fill="none" stroke="black" points="1907,-146 1907,-198 2376,-198 2376,-146 1907,-146"/>
</g>
<g id="clust33" class="cluster">
<title>cluster_CloudOptionsModule_imports</title>
<polygon fill="none" stroke="black" points="1583,-146 1583,-198 1899,-198 1899,-146 1583,-146"/>
</g>
<g id="clust43" class="cluster">
<title>cluster_DashboardModule</title>
<polygon fill="none" stroke="black" stroke-dasharray="1,5" points="2452,-138 2452,-206 4068,-206 4068,-138 2452,-138"/>
</g>
<g id="clust44" class="cluster">
<title>cluster_DashboardModule_declarations</title>
<polygon fill="none" stroke="black" points="2953,-146 2953,-198 4060,-198 4060,-146 2953,-146"/>
</g>
<g id="clust52" class="cluster">
<title>cluster_DashboardModule_imports</title>
<polygon fill="none" stroke="black" points="2763,-146 2763,-198 2945,-198 2945,-146 2763,-146"/>
</g>
<g id="clust53" class="cluster">
<title>cluster_DashboardModule_exports</title>
<polygon fill="none" stroke="black" points="2460,-146 2460,-198 2755,-198 2755,-146 2460,-146"/>
</g>
<g id="clust62" class="cluster">
<title>cluster_HomeModule</title>
<polygon fill="none" stroke="black" stroke-dasharray="1,5" points="4098,-138 4098,-350 5400,-350 5400,-138 4098,-138"/>
</g>
<g id="clust63" class="cluster">
<title>cluster_HomeModule_declarations</title>
<polygon fill="none" stroke="black" points="4414,-146 4414,-198 5392,-198 5392,-146 4414,-146"/>
</g>
<g id="clust70" class="cluster">
<title>cluster_HomeModule_imports</title>
<polygon fill="none" stroke="black" points="4106,-146 4106,-198 4406,-198 4406,-146 4106,-146"/>
</g>
<g id="clust71" class="cluster">
<title>cluster_HomeModule_exports</title>
<polygon fill="none" stroke="black" points="4616,-290 4616,-342 4931,-342 4931,-290 4616,-290"/>
</g>
<g id="clust86" class="cluster">
<title>cluster_OrdersModule</title>
<polygon fill="none" stroke="black" stroke-dasharray="1,5" points="8,-138 8,-274 344,-274 344,-138 8,-138"/>
</g>
<g id="clust87" class="cluster">
<title>cluster_OrdersModule_declarations</title>
<polygon fill="none" stroke="black" points="182,-146 182,-198 336,-198 336,-146 182,-146"/>
</g>
<g id="clust89" class="cluster">
<title>cluster_OrdersModule_imports</title>
<polygon fill="none" stroke="black" points="16,-146 16,-198 174,-198 174,-146 16,-146"/>
</g>
<g id="clust99" class="cluster">
<title>cluster_SearchModule</title>
<polygon fill="none" stroke="black" stroke-dasharray="1,5" points="5831,-214 5831,-342 6205,-342 6205,-214 5831,-214"/>
</g>
<g id="clust100" class="cluster">
<title>cluster_SearchModule_declarations</title>
<polygon fill="none" stroke="black" points="6005,-222 6005,-274 6197,-274 6197,-222 6005,-222"/>
</g>
<g id="clust102" class="cluster">
<title>cluster_SearchModule_imports</title>
<polygon fill="none" stroke="black" points="5839,-222 5839,-274 5997,-274 5997,-222 5839,-222"/>
</g>
<g id="clust112" class="cluster">
<title>cluster_SharedModule</title>
<polygon fill="none" stroke="black" stroke-dasharray="1,5" points="352,-214 352,-282 1567,-282 1567,-214 352,-214"/>
</g>
<g id="clust113" class="cluster">
<title>cluster_SharedModule_declarations</title>
<polygon fill="none" stroke="black" points="968,-222 968,-274 1559,-274 1559,-222 968,-222"/>
</g>
<g id="clust118" class="cluster">
<title>cluster_SharedModule_exports</title>
<polygon fill="none" stroke="black" points="360,-222 360,-274 960,-274 960,-222 360,-222"/>
</g>
<!-- AppComponent -->
<g id="node1" class="node">
<title>AppComponent</title>
<polygon fill="#ffffb3" stroke="black" points="5806.94,-122 5701.06,-122 5701.06,-86 5806.94,-86 5806.94,-122"/>
<text text-anchor="middle" x="5754" y="-99.8" font-family="Times,serif" font-size="14.00">AppComponent</text>
</g>
<!-- AppModule -->
<g id="node2" class="node">
<title>AppModule</title>
<polygon fill="#8dd3c7" stroke="black" points="5654.66,-190 5651.66,-194 5630.66,-194 5627.66,-190 5571.34,-190 5571.34,-154 5654.66,-154 5654.66,-190"/>
<text text-anchor="middle" x="5613" y="-167.8" font-family="Times,serif" font-size="14.00">AppModule</text>
</g>
<!-- AppComponent&#45;&gt;AppModule -->
<g id="edge1" class="edge">
<title>AppComponent&#45;&gt;AppModule</title>
<path fill="none" stroke="black" d="M5754,-122.22C5754,-142.37 5754,-172 5754,-172 5754,-172 5664.92,-172 5664.92,-172"/>
<polygon fill="black" stroke="black" points="5664.92,-168.5 5654.92,-172 5664.92,-175.5 5664.92,-168.5"/>
</g>
<!-- AppComponent  -->
<g id="node5" class="node">
<title>AppComponent </title>
<polygon fill="#80b1d3" stroke="black" points="5667.44,-266 5558.56,-266 5558.56,-230 5667.44,-230 5667.44,-266"/>
<text text-anchor="middle" x="5613" y="-243.8" font-family="Times,serif" font-size="14.00">AppComponent </text>
</g>
<!-- AppModule&#45;&gt;AppComponent  -->
<g id="edge4" class="edge">
<title>AppModule&#45;&gt;AppComponent </title>
<path fill="none" stroke="black" stroke-dasharray="1,5" d="M5613,-190.01C5613,-190.01 5613,-219.85 5613,-219.85"/>
<polygon fill="black" stroke="black" points="5609.5,-219.85 5613,-229.85 5616.5,-219.85 5609.5,-219.85"/>
</g>
<!-- AppRoutingModule -->
<g id="node3" class="node">
<title>AppRoutingModule</title>
<polygon fill="#8dd3c7" stroke="black" points="5677.27,-122 5674.27,-126 5653.27,-126 5650.27,-122 5548.73,-122 5548.73,-86 5677.27,-86 5677.27,-122"/>
<text text-anchor="middle" x="5613" y="-99.8" font-family="Times,serif" font-size="14.00">AppRoutingModule</text>
</g>
<!-- AppRoutingModule&#45;&gt;AppModule -->
<g id="edge2" class="edge">
<title>AppRoutingModule&#45;&gt;AppModule</title>
<path fill="none" stroke="black" d="M5613,-122.22C5613,-122.22 5613,-143.73 5613,-143.73"/>
<polygon fill="black" stroke="black" points="5609.5,-143.73 5613,-153.73 5616.5,-143.73 5609.5,-143.73"/>
</g>
<!-- MaterialModule -->
<g id="node4" class="node">
<title>MaterialModule</title>
<polygon fill="#8dd3c7" stroke="black" points="5530.47,-122 5527.47,-126 5506.47,-126 5503.47,-122 5423.53,-122 5423.53,-86 5530.47,-86 5530.47,-122"/>
<text text-anchor="middle" x="5477" y="-99.8" font-family="Times,serif" font-size="14.00">MaterialModule</text>
</g>
<!-- MaterialModule&#45;&gt;AppModule -->
<g id="edge3" class="edge">
<title>MaterialModule&#45;&gt;AppModule</title>
<path fill="none" stroke="black" d="M5477,-122.22C5477,-142.37 5477,-172 5477,-172 5477,-172 5561.09,-172 5561.09,-172"/>
<polygon fill="black" stroke="black" points="5561.09,-175.5 5571.09,-172 5561.09,-168.5 5561.09,-175.5"/>
</g>
<!-- CartModule -->
<g id="node8" class="node">
<title>CartModule</title>
<polygon fill="#8dd3c7" stroke="black" points="2858.65,-334 2855.65,-338 2834.65,-338 2831.65,-334 2775.35,-334 2775.35,-298 2858.65,-298 2858.65,-334"/>
<text text-anchor="middle" x="2817" y="-311.8" font-family="Times,serif" font-size="14.00">CartModule</text>
</g>
<!-- MaterialModule&#45;&gt;CartModule -->
<g id="edge9" class="edge">
<title>MaterialModule&#45;&gt;CartModule</title>
<path fill="none" stroke="black" d="M5423.5,-112C5232.46,-112 4595.25,-112 4595.25,-112 4595.25,-112 4595.25,-325 4595.25,-325 4595.25,-325 2868.77,-325 2868.77,-325"/>
<polygon fill="black" stroke="black" points="2868.77,-321.5 2858.77,-325 2868.77,-328.5 2868.77,-321.5"/>
</g>
<!-- DashboardModule -->
<g id="node10" class="node">
<title>DashboardModule</title>
<polygon fill="#8dd3c7" stroke="black" points="3160.19,-266 3157.19,-270 3136.19,-270 3133.19,-266 3039.81,-266 3039.81,-230 3160.19,-230 3160.19,-266"/>
<text text-anchor="middle" x="3100" y="-243.8" font-family="Times,serif" font-size="14.00">DashboardModule</text>
</g>
<!-- MaterialModule&#45;&gt;DashboardModule -->
<g id="edge24" class="edge">
<title>MaterialModule&#45;&gt;DashboardModule</title>
<path fill="none" stroke="black" d="M5423.5,-107C5071.5,-107 3101.86,-107 3101.86,-107 3101.86,-107 3101.86,-219.86 3101.86,-219.86"/>
<polygon fill="black" stroke="black" points="3098.36,-219.86 3101.86,-229.86 3105.36,-219.86 3098.36,-219.86"/>
</g>
<!-- CloudOptionsModule -->
<g id="node14" class="node">
<title>CloudOptionsModule</title>
<polygon fill="#8dd3c7" stroke="black" points="2124.11,-266 2121.11,-270 2100.11,-270 2097.11,-266 1985.89,-266 1985.89,-230 2124.11,-230 2124.11,-266"/>
<text text-anchor="middle" x="2055" y="-243.8" font-family="Times,serif" font-size="14.00">CloudOptionsModule</text>
</g>
<!-- MaterialModule&#45;&gt;CloudOptionsModule -->
<g id="edge14" class="edge">
<title>MaterialModule&#45;&gt;CloudOptionsModule</title>
<path fill="none" stroke="black" d="M5423.29,-102C4988.26,-102 2057.53,-102 2057.53,-102 2057.53,-102 2057.53,-219.8 2057.53,-219.8"/>
<polygon fill="black" stroke="black" points="2054.03,-219.8 2057.53,-229.8 2061.03,-219.8 2054.03,-219.8"/>
</g>
<!-- SharedModule -->
<g id="node16" class="node">
<title>SharedModule</title>
<polygon fill="#8dd3c7" stroke="black" points="1689.42,-190 1686.42,-194 1665.42,-194 1662.42,-190 1590.58,-190 1590.58,-154 1689.42,-154 1689.42,-190"/>
<text text-anchor="middle" x="1640" y="-167.8" font-family="Times,serif" font-size="14.00">SharedModule</text>
</g>
<!-- MaterialModule&#45;&gt;SharedModule -->
<g id="edge50" class="edge">
<title>MaterialModule&#45;&gt;SharedModule</title>
<path fill="none" stroke="black" d="M5423.49,-97C4959.88,-97 1640,-97 1640,-97 1640,-97 1640,-143.84 1640,-143.84"/>
<polygon fill="black" stroke="black" points="1636.5,-143.84 1640,-153.84 1643.5,-143.84 1636.5,-143.84"/>
</g>
<!-- HomeModule -->
<g id="node33" class="node">
<title>HomeModule</title>
<polygon fill="#8dd3c7" stroke="black" points="4809.76,-266 4806.76,-270 4785.76,-270 4782.76,-266 4716.24,-266 4716.24,-230 4809.76,-230 4809.76,-266"/>
<text text-anchor="middle" x="4763" y="-243.8" font-family="Times,serif" font-size="14.00">HomeModule</text>
</g>
<!-- MaterialModule&#45;&gt;HomeModule -->
<g id="edge35" class="edge">
<title>MaterialModule&#45;&gt;HomeModule</title>
<path fill="none" stroke="black" d="M5423.33,-117C5258.5,-117 4770.69,-117 4770.69,-117 4770.69,-117 4770.69,-219.79 4770.69,-219.79"/>
<polygon fill="black" stroke="black" points="4767.19,-219.78 4770.69,-229.79 4774.19,-219.79 4767.19,-219.78"/>
</g>
<!-- OrdersModule -->
<g id="node39" class="node">
<title>OrdersModule</title>
<polygon fill="#8dd3c7" stroke="black" points="225.64,-266 222.64,-270 201.64,-270 198.64,-266 128.36,-266 128.36,-230 225.64,-230 225.64,-266"/>
<text text-anchor="middle" x="177" y="-243.8" font-family="Times,serif" font-size="14.00">OrdersModule</text>
</g>
<!-- MaterialModule&#45;&gt;OrdersModule -->
<g id="edge40" class="edge">
<title>MaterialModule&#45;&gt;OrdersModule</title>
<path fill="none" stroke="black" d="M5423.26,-92C4866.91,-92 177.97,-92 177.97,-92 177.97,-92 177.97,-219.8 177.97,-219.8"/>
<polygon fill="black" stroke="black" points="174.47,-219.8 177.97,-229.8 181.47,-219.8 174.47,-219.8"/>
</g>
<!-- CartComponent -->
<g id="node6" class="node">
<title>CartComponent</title>
<polygon fill="#ffffb3" stroke="black" points="2869.94,-266 2764.06,-266 2764.06,-230 2869.94,-230 2869.94,-266"/>
<text text-anchor="middle" x="2817" y="-243.8" font-family="Times,serif" font-size="14.00">CartComponent</text>
</g>
<!-- CartComponent&#45;&gt;CartModule -->
<g id="edge5" class="edge">
<title>CartComponent&#45;&gt;CartModule</title>
<path fill="none" stroke="black" d="M2817,-266.22C2817,-266.22 2817,-287.73 2817,-287.73"/>
<polygon fill="black" stroke="black" points="2813.5,-287.73 2817,-297.73 2820.5,-287.73 2813.5,-287.73"/>
</g>
<!-- CartItemsComponent -->
<g id="node7" class="node">
<title>CartItemsComponent</title>
<polygon fill="#ffffb3" stroke="black" points="2746.04,-266 2609.96,-266 2609.96,-230 2746.04,-230 2746.04,-266"/>
<text text-anchor="middle" x="2678" y="-243.8" font-family="Times,serif" font-size="14.00">CartItemsComponent</text>
</g>
<!-- CartItemsComponent&#45;&gt;CartModule -->
<g id="edge6" class="edge">
<title>CartItemsComponent&#45;&gt;CartModule</title>
<path fill="none" stroke="black" d="M2678,-266.22C2678,-286.37 2678,-316 2678,-316 2678,-316 2765.3,-316 2765.3,-316"/>
<polygon fill="black" stroke="black" points="2765.3,-319.5 2775.3,-316 2765.3,-312.5 2765.3,-319.5"/>
</g>
<!-- CartRoutingModule -->
<g id="node9" class="node">
<title>CartRoutingModule</title>
<polygon fill="#8dd3c7" stroke="black" points="3022.27,-266 3019.27,-270 2998.27,-270 2995.27,-266 2893.73,-266 2893.73,-230 3022.27,-230 3022.27,-266"/>
<text text-anchor="middle" x="2958" y="-243.8" font-family="Times,serif" font-size="14.00">CartRoutingModule</text>
</g>
<!-- CartRoutingModule&#45;&gt;CartModule -->
<g id="edge7" class="edge">
<title>CartRoutingModule&#45;&gt;CartModule</title>
<path fill="none" stroke="black" d="M2958,-266.02C2958,-283.37 2958,-307 2958,-307 2958,-307 2868.92,-307 2868.92,-307"/>
<polygon fill="black" stroke="black" points="2868.92,-303.5 2858.92,-307 2868.92,-310.5 2868.92,-303.5"/>
</g>
<!-- DashboardModule&#45;&gt;CartModule -->
<g id="edge8" class="edge">
<title>DashboardModule&#45;&gt;CartModule</title>
<path fill="none" stroke="black" d="M3120.03,-266.22C3120.03,-286.37 3120.03,-316 3120.03,-316 3120.03,-316 2868.82,-316 2868.82,-316"/>
<polygon fill="black" stroke="black" points="2868.82,-312.5 2858.82,-316 2868.82,-319.5 2868.82,-312.5"/>
</g>
<!-- ApiErrorComponent  -->
<g id="node25" class="node">
<title>ApiErrorComponent </title>
<polygon fill="#fb8072" stroke="black" points="2746.86,-190 2611.14,-190 2611.14,-154 2746.86,-154 2746.86,-190"/>
<text text-anchor="middle" x="2679" y="-167.8" font-family="Times,serif" font-size="14.00">ApiErrorComponent </text>
</g>
<!-- DashboardModule&#45;&gt;ApiErrorComponent  -->
<g id="edge26" class="edge">
<title>DashboardModule&#45;&gt;ApiErrorComponent </title>
<path fill="none" stroke="black" stroke-dasharray="5,2" d="M3066.42,-229.94C3066.42,-218.56 3066.42,-206 3066.42,-206 3066.42,-206 2678.79,-206 2678.79,-206 2678.79,-206 2678.79,-200.19 2678.79,-200.19"/>
<polygon fill="black" stroke="black" points="2682.29,-200.19 2678.79,-190.19 2675.29,-200.19 2682.29,-200.19"/>
</g>
<!-- HeaderComponent  -->
<g id="node26" class="node">
<title>HeaderComponent </title>
<polygon fill="#fb8072" stroke="black" points="2593.74,-190 2468.26,-190 2468.26,-154 2593.74,-154 2593.74,-190"/>
<text text-anchor="middle" x="2531" y="-167.8" font-family="Times,serif" font-size="14.00">HeaderComponent </text>
</g>
<!-- DashboardModule&#45;&gt;HeaderComponent  -->
<g id="edge27" class="edge">
<title>DashboardModule&#45;&gt;HeaderComponent </title>
<path fill="none" stroke="black" stroke-dasharray="5,2" d="M3057.58,-229.81C3057.58,-221.72 3057.58,-214 3057.58,-214 3057.58,-214 2531,-214 2531,-214 2531,-214 2531,-200.06 2531,-200.06"/>
<polygon fill="black" stroke="black" points="2534.5,-200.06 2531,-190.06 2527.5,-200.06 2534.5,-200.06"/>
</g>
<!-- SearchModule -->
<g id="node42" class="node">
<title>SearchModule</title>
<polygon fill="#8dd3c7" stroke="black" points="5951.64,-334 5948.64,-338 5927.64,-338 5924.64,-334 5854.36,-334 5854.36,-298 5951.64,-298 5951.64,-334"/>
<text text-anchor="middle" x="5903" y="-311.8" font-family="Times,serif" font-size="14.00">SearchModule</text>
</g>
<!-- DashboardModule&#45;&gt;SearchModule -->
<g id="edge44" class="edge">
<title>DashboardModule&#45;&gt;SearchModule</title>
<path fill="none" stroke="black" d="M3079.97,-266.19C3079.97,-274.28 3079.97,-282 3079.97,-282 3079.97,-282 5886.73,-282 5886.73,-282 5886.73,-282 5886.73,-287.81 5886.73,-287.81"/>
<polygon fill="black" stroke="black" points="5883.23,-287.81 5886.73,-297.81 5890.23,-287.81 5883.23,-287.81"/>
</g>
<!-- CarsDataComponent -->
<g id="node11" class="node">
<title>CarsDataComponent</title>
<polygon fill="#ffffb3" stroke="black" points="2048.92,-190 1915.08,-190 1915.08,-154 2048.92,-154 2048.92,-190"/>
<text text-anchor="middle" x="1982" y="-167.8" font-family="Times,serif" font-size="14.00">CarsDataComponent</text>
</g>
<!-- CarsDataComponent&#45;&gt;CloudOptionsModule -->
<g id="edge10" class="edge">
<title>CarsDataComponent&#45;&gt;CloudOptionsModule</title>
<path fill="none" stroke="black" d="M2017.33,-190.01C2017.33,-190.01 2017.33,-219.85 2017.33,-219.85"/>
<polygon fill="black" stroke="black" points="2013.83,-219.85 2017.33,-229.85 2020.83,-219.85 2013.83,-219.85"/>
</g>
<!-- CloudOptionsComponent -->
<g id="node12" class="node">
<title>CloudOptionsComponent</title>
<polygon fill="#ffffb3" stroke="black" points="2367.89,-190 2208.11,-190 2208.11,-154 2367.89,-154 2367.89,-190"/>
<text text-anchor="middle" x="2288" y="-167.8" font-family="Times,serif" font-size="14.00">CloudOptionsComponent</text>
</g>
<!-- CloudOptionsComponent&#45;&gt;CloudOptionsModule -->
<g id="edge11" class="edge">
<title>CloudOptionsComponent&#45;&gt;CloudOptionsModule</title>
<path fill="none" stroke="black" d="M2288,-190.01C2288,-212.49 2288,-248 2288,-248 2288,-248 2134.28,-248 2134.28,-248"/>
<polygon fill="black" stroke="black" points="2134.28,-244.5 2124.28,-248 2134.28,-251.5 2134.28,-244.5"/>
</g>
<!-- TabBarComponent -->
<g id="node13" class="node">
<title>TabBarComponent</title>
<polygon fill="#ffffb3" stroke="black" points="2189.81,-190 2066.19,-190 2066.19,-154 2189.81,-154 2189.81,-190"/>
<text text-anchor="middle" x="2128" y="-167.8" font-family="Times,serif" font-size="14.00">TabBarComponent</text>
</g>
<!-- TabBarComponent&#45;&gt;CloudOptionsModule -->
<g id="edge12" class="edge">
<title>TabBarComponent&#45;&gt;CloudOptionsModule</title>
<path fill="none" stroke="black" d="M2095.2,-190.01C2095.2,-190.01 2095.2,-219.85 2095.2,-219.85"/>
<polygon fill="black" stroke="black" points="2091.7,-219.85 2095.2,-229.85 2098.7,-219.85 2091.7,-219.85"/>
</g>
<!-- CloudOptionsRoutingModule -->
<g id="node15" class="node">
<title>CloudOptionsRoutingModule</title>
<polygon fill="#8dd3c7" stroke="black" points="1890.73,-190 1887.73,-194 1866.73,-194 1863.73,-190 1707.27,-190 1707.27,-154 1890.73,-154 1890.73,-190"/>
<text text-anchor="middle" x="1799" y="-167.8" font-family="Times,serif" font-size="14.00">CloudOptionsRoutingModule</text>
</g>
<!-- CloudOptionsRoutingModule&#45;&gt;CloudOptionsModule -->
<g id="edge13" class="edge">
<title>CloudOptionsRoutingModule&#45;&gt;CloudOptionsModule</title>
<path fill="none" stroke="black" d="M1799,-190.31C1799,-210.15 1799,-239 1799,-239 1799,-239 1975.72,-239 1975.72,-239"/>
<polygon fill="black" stroke="black" points="1975.72,-242.5 1985.72,-239 1975.72,-235.5 1975.72,-242.5"/>
</g>
<!-- SharedModule&#45;&gt;DashboardModule -->
<g id="edge25" class="edge">
<title>SharedModule&#45;&gt;DashboardModule</title>
<path fill="none" stroke="black" d="M1615.39,-190.05C1615.39,-204.37 1615.39,-222 1615.39,-222 1615.39,-222 3048.74,-222 3048.74,-222 3048.74,-222 3048.74,-222.79 3048.74,-222.79"/>
<polygon fill="black" stroke="black" points="3045.24,-219.94 3048.74,-229.94 3052.24,-219.94 3045.24,-219.94"/>
</g>
<!-- SharedModule&#45;&gt;CloudOptionsModule -->
<g id="edge15" class="edge">
<title>SharedModule&#45;&gt;CloudOptionsModule</title>
<path fill="none" stroke="black" d="M1664.61,-190.01C1664.61,-212.49 1664.61,-248 1664.61,-248 1664.61,-248 1975.66,-248 1975.66,-248"/>
<polygon fill="black" stroke="black" points="1975.66,-251.5 1985.66,-248 1975.66,-244.5 1975.66,-251.5"/>
</g>
<!-- SharedModule&#45;&gt;OrdersModule -->
<g id="edge42" class="edge">
<title>SharedModule&#45;&gt;OrdersModule</title>
<path fill="none" stroke="black" d="M1590.54,-160C1353.84,-160 348.11,-160 348.11,-160 348.11,-160 348.11,-248 348.11,-248 348.11,-248 236.03,-248 236.03,-248"/>
<polygon fill="black" stroke="black" points="236.03,-244.5 226.03,-248 236.03,-251.5 236.03,-244.5"/>
</g>
<!-- ActionColumnComponent  -->
<g id="node47" class="node">
<title>ActionColumnComponent </title>
<polygon fill="#fb8072" stroke="black" points="776.05,-266 607.95,-266 607.95,-230 776.05,-230 776.05,-266"/>
<text text-anchor="middle" x="692" y="-243.8" font-family="Times,serif" font-size="14.00">ActionColumnComponent </text>
</g>
<!-- SharedModule&#45;&gt;ActionColumnComponent  -->
<g id="edge51" class="edge">
<title>SharedModule&#45;&gt;ActionColumnComponent </title>
<path fill="none" stroke="black" stroke-dasharray="5,2" d="M1590.7,-170C1396.11,-170 692,-170 692,-170 692,-170 692,-219.91 692,-219.91"/>
<polygon fill="black" stroke="black" points="688.5,-219.91 692,-229.91 695.5,-219.91 688.5,-219.91"/>
</g>
<!-- TableHeadersDropdownComponent  -->
<g id="node48" class="node">
<title>TableHeadersDropdownComponent </title>
<polygon fill="#fb8072" stroke="black" points="590.43,-266 367.57,-266 367.57,-230 590.43,-230 590.43,-266"/>
<text text-anchor="middle" x="479" y="-243.8" font-family="Times,serif" font-size="14.00">TableHeadersDropdownComponent </text>
</g>
<!-- SharedModule&#45;&gt;TableHeadersDropdownComponent  -->
<g id="edge52" class="edge">
<title>SharedModule&#45;&gt;TableHeadersDropdownComponent </title>
<path fill="none" stroke="black" stroke-dasharray="5,2" d="M1590.48,-165C1368.88,-165 479,-165 479,-165 479,-165 479,-219.99 479,-219.99"/>
<polygon fill="black" stroke="black" points="475.5,-219.99 479,-229.99 482.5,-219.99 475.5,-219.99"/>
</g>
<!-- TabularViewComponent  -->
<g id="node49" class="node">
<title>TabularViewComponent </title>
<polygon fill="#fb8072" stroke="black" points="952.18,-266 793.82,-266 793.82,-230 952.18,-230 952.18,-266"/>
<text text-anchor="middle" x="873" y="-243.8" font-family="Times,serif" font-size="14.00">TabularViewComponent </text>
</g>
<!-- SharedModule&#45;&gt;TabularViewComponent  -->
<g id="edge53" class="edge">
<title>SharedModule&#45;&gt;TabularViewComponent </title>
<path fill="none" stroke="black" stroke-dasharray="5,2" d="M1590.56,-175C1420.94,-175 873,-175 873,-175 873,-175 873,-219.96 873,-219.96"/>
<polygon fill="black" stroke="black" points="869.5,-219.96 873,-229.96 876.5,-219.96 869.5,-219.96"/>
</g>
<!-- ApiErrorComponent -->
<g id="node17" class="node">
<title>ApiErrorComponent</title>
<polygon fill="#ffffb3" stroke="black" points="3092.86,-190 2961.14,-190 2961.14,-154 3092.86,-154 3092.86,-190"/>
<text text-anchor="middle" x="3027" y="-167.8" font-family="Times,serif" font-size="14.00">ApiErrorComponent</text>
</g>
<!-- ApiErrorComponent&#45;&gt;DashboardModule -->
<g id="edge16" class="edge">
<title>ApiErrorComponent&#45;&gt;DashboardModule</title>
<path fill="none" stroke="black" d="M3084.09,-190.01C3084.09,-190.01 3084.09,-219.85 3084.09,-219.85"/>
<polygon fill="black" stroke="black" points="3080.59,-219.85 3084.09,-229.85 3087.59,-219.85 3080.59,-219.85"/>
</g>
<!-- ConfirmationDialogComponent -->
<g id="node18" class="node">
<title>ConfirmationDialogComponent</title>
<polygon fill="#ffffb3" stroke="black" points="4052.37,-190 3857.63,-190 3857.63,-154 4052.37,-154 4052.37,-190"/>
<text text-anchor="middle" x="3955" y="-167.8" font-family="Times,serif" font-size="14.00">ConfirmationDialogComponent</text>
</g>
<!-- ConfirmationDialogComponent&#45;&gt;DashboardModule -->
<g id="edge17" class="edge">
<title>ConfirmationDialogComponent&#45;&gt;DashboardModule</title>
<path fill="none" stroke="black" d="M3955,-190.21C3955,-216.51 3955,-262 3955,-262 3955,-262 3170.12,-262 3170.12,-262"/>
<polygon fill="black" stroke="black" points="3170.12,-258.5 3160.12,-262 3170.12,-265.5 3170.12,-258.5"/>
</g>
<!-- DashboardComponent -->
<g id="node19" class="node">
<title>DashboardComponent</title>
<polygon fill="#ffffb3" stroke="black" points="3839.97,-190 3698.03,-190 3698.03,-154 3839.97,-154 3839.97,-190"/>
<text text-anchor="middle" x="3769" y="-167.8" font-family="Times,serif" font-size="14.00">DashboardComponent</text>
</g>
<!-- DashboardComponent&#45;&gt;DashboardModule -->
<g id="edge18" class="edge">
<title>DashboardComponent&#45;&gt;DashboardModule</title>
<path fill="none" stroke="black" d="M3769,-190.24C3769,-215.48 3769,-258 3769,-258 3769,-258 3170.25,-258 3170.25,-258"/>
<polygon fill="black" stroke="black" points="3170.25,-254.5 3160.25,-258 3170.25,-261.5 3170.25,-254.5"/>
</g>
<!-- HeaderComponent -->
<g id="node20" class="node">
<title>HeaderComponent</title>
<polygon fill="#ffffb3" stroke="black" points="3679.74,-190 3558.26,-190 3558.26,-154 3679.74,-154 3679.74,-190"/>
<text text-anchor="middle" x="3619" y="-167.8" font-family="Times,serif" font-size="14.00">HeaderComponent</text>
</g>
<!-- HeaderComponent&#45;&gt;DashboardModule -->
<g id="edge19" class="edge">
<title>HeaderComponent&#45;&gt;DashboardModule</title>
<path fill="none" stroke="black" d="M3619,-190.2C3619,-214.36 3619,-254 3619,-254 3619,-254 3170.3,-254 3170.3,-254"/>
<polygon fill="black" stroke="black" points="3170.3,-250.5 3160.3,-254 3170.3,-257.5 3170.3,-250.5"/>
</g>
<!-- SearchComponent -->
<g id="node21" class="node">
<title>SearchComponent</title>
<polygon fill="#ffffb3" stroke="black" points="3539.92,-190 3420.08,-190 3420.08,-154 3539.92,-154 3539.92,-190"/>
<text text-anchor="middle" x="3480" y="-167.8" font-family="Times,serif" font-size="14.00">SearchComponent</text>
</g>
<!-- SearchComponent&#45;&gt;DashboardModule -->
<g id="edge20" class="edge">
<title>SearchComponent&#45;&gt;DashboardModule</title>
<path fill="none" stroke="black" d="M3480,-190.09C3480,-213.13 3480,-250 3480,-250 3480,-250 3170.21,-250 3170.21,-250"/>
<polygon fill="black" stroke="black" points="3170.21,-246.5 3160.21,-250 3170.21,-253.5 3170.21,-246.5"/>
</g>
<!-- ServerErrorComponent -->
<g id="node22" class="node">
<title>ServerErrorComponent</title>
<polygon fill="#ffffb3" stroke="black" points="3402.9,-190 3255.1,-190 3255.1,-154 3402.9,-154 3402.9,-190"/>
<text text-anchor="middle" x="3329" y="-167.8" font-family="Times,serif" font-size="14.00">ServerErrorComponent</text>
</g>
<!-- ServerErrorComponent&#45;&gt;DashboardModule -->
<g id="edge21" class="edge">
<title>ServerErrorComponent&#45;&gt;DashboardModule</title>
<path fill="none" stroke="black" d="M3329,-190.29C3329,-212.21 3329,-246 3329,-246 3329,-246 3170.17,-246 3170.17,-246"/>
<polygon fill="black" stroke="black" points="3170.17,-242.5 3160.17,-246 3170.17,-249.5 3170.17,-242.5"/>
</g>
<!-- SidenavComponent -->
<g id="node23" class="node">
<title>SidenavComponent</title>
<polygon fill="#ffffb3" stroke="black" points="3237.44,-190 3110.56,-190 3110.56,-154 3237.44,-154 3237.44,-190"/>
<text text-anchor="middle" x="3174" y="-167.8" font-family="Times,serif" font-size="14.00">SidenavComponent</text>
</g>
<!-- SidenavComponent&#45;&gt;DashboardModule -->
<g id="edge22" class="edge">
<title>SidenavComponent&#45;&gt;DashboardModule</title>
<path fill="none" stroke="black" d="M3135.44,-190.01C3135.44,-190.01 3135.44,-219.85 3135.44,-219.85"/>
<polygon fill="black" stroke="black" points="3131.94,-219.85 3135.44,-229.85 3138.94,-219.85 3131.94,-219.85"/>
</g>
<!-- DashboardRoutingModule -->
<g id="node24" class="node">
<title>DashboardRoutingModule</title>
<polygon fill="#8dd3c7" stroke="black" points="2936.81,-190 2933.81,-194 2912.81,-194 2909.81,-190 2771.19,-190 2771.19,-154 2936.81,-154 2936.81,-190"/>
<text text-anchor="middle" x="2854" y="-167.8" font-family="Times,serif" font-size="14.00">DashboardRoutingModule</text>
</g>
<!-- DashboardRoutingModule&#45;&gt;DashboardModule -->
<g id="edge23" class="edge">
<title>DashboardRoutingModule&#45;&gt;DashboardModule</title>
<path fill="none" stroke="black" d="M2915.13,-190.06C2915.13,-194.49 2915.13,-198 2915.13,-198 2915.13,-198 3075.26,-198 3075.26,-198 3075.26,-198 3075.26,-219.95 3075.26,-219.95"/>
<polygon fill="black" stroke="black" points="3071.76,-219.95 3075.26,-229.95 3078.76,-219.95 3071.76,-219.95"/>
</g>
<!-- CarBrandsComponent -->
<g id="node27" class="node">
<title>CarBrandsComponent</title>
<polygon fill="#ffffb3" stroke="black" points="5067.7,-190 4926.3,-190 4926.3,-154 5067.7,-154 5067.7,-190"/>
<text text-anchor="middle" x="4997" y="-167.8" font-family="Times,serif" font-size="14.00">CarBrandsComponent</text>
</g>
<!-- CarBrandsComponent&#45;&gt;HomeModule -->
<g id="edge28" class="edge">
<title>CarBrandsComponent&#45;&gt;HomeModule</title>
<path fill="none" stroke="black" d="M5020.53,-190.03C5020.53,-209.58 5020.53,-238 5020.53,-238 5020.53,-238 4819.94,-238 4819.94,-238"/>
<polygon fill="black" stroke="black" points="4819.94,-234.5 4809.94,-238 4819.94,-241.5 4819.94,-234.5"/>
</g>
<!-- CarsListComponent -->
<g id="node28" class="node">
<title>CarsListComponent</title>
<polygon fill="#ffffb3" stroke="black" points="4908.27,-190 4779.73,-190 4779.73,-154 4908.27,-154 4908.27,-190"/>
<text text-anchor="middle" x="4844" y="-167.8" font-family="Times,serif" font-size="14.00">CarsListComponent</text>
</g>
<!-- CarsListComponent&#45;&gt;HomeModule -->
<g id="edge29" class="edge">
<title>CarsListComponent&#45;&gt;HomeModule</title>
<path fill="none" stroke="black" d="M4794.75,-190.01C4794.75,-190.01 4794.75,-219.85 4794.75,-219.85"/>
<polygon fill="black" stroke="black" points="4791.25,-219.85 4794.75,-229.85 4798.25,-219.85 4791.25,-219.85"/>
</g>
<!-- CarsdataCardComponent -->
<g id="node29" class="node">
<title>CarsdataCardComponent</title>
<polygon fill="#ffffb3" stroke="black" points="4761.52,-190 4604.48,-190 4604.48,-154 4761.52,-154 4761.52,-190"/>
<text text-anchor="middle" x="4683" y="-167.8" font-family="Times,serif" font-size="14.00">CarsdataCardComponent</text>
</g>
<!-- CarsdataCardComponent&#45;&gt;HomeModule -->
<g id="edge30" class="edge">
<title>CarsdataCardComponent&#45;&gt;HomeModule</title>
<path fill="none" stroke="black" d="M4738.94,-190.01C4738.94,-190.01 4738.94,-219.85 4738.94,-219.85"/>
<polygon fill="black" stroke="black" points="4735.44,-219.85 4738.94,-229.85 4742.44,-219.85 4735.44,-219.85"/>
</g>
<!-- DataNotFoundComponent -->
<g id="node30" class="node">
<title>DataNotFoundComponent</title>
<polygon fill="#ffffb3" stroke="black" points="4586.04,-190 4421.96,-190 4421.96,-154 4586.04,-154 4586.04,-190"/>
<text text-anchor="middle" x="4504" y="-167.8" font-family="Times,serif" font-size="14.00">DataNotFoundComponent</text>
</g>
<!-- DataNotFoundComponent&#45;&gt;HomeModule -->
<g id="edge31" class="edge">
<title>DataNotFoundComponent&#45;&gt;HomeModule</title>
<path fill="none" stroke="black" d="M4504,-190.27C4504,-208.56 4504,-234 4504,-234 4504,-234 4706.1,-234 4706.1,-234"/>
<polygon fill="black" stroke="black" points="4706.1,-237.5 4716.1,-234 4706.1,-230.5 4706.1,-237.5"/>
</g>
<!-- HomeComponent -->
<g id="node31" class="node">
<title>HomeComponent</title>
<polygon fill="#ffffb3" stroke="black" points="5383.55,-190 5268.45,-190 5268.45,-154 5383.55,-154 5383.55,-190"/>
<text text-anchor="middle" x="5326" y="-167.8" font-family="Times,serif" font-size="14.00">HomeComponent</text>
</g>
<!-- HomeComponent&#45;&gt;HomeModule -->
<g id="edge32" class="edge">
<title>HomeComponent&#45;&gt;HomeModule</title>
<path fill="none" stroke="black" d="M5326,-190.15C5326,-213.76 5326,-252 5326,-252 5326,-252 4820.03,-252 4820.03,-252"/>
<polygon fill="black" stroke="black" points="4820.03,-248.5 4810.03,-252 4820.03,-255.5 4820.03,-248.5"/>
</g>
<!-- PageNotFoundComponent -->
<g id="node32" class="node">
<title>PageNotFoundComponent</title>
<polygon fill="#ffffb3" stroke="black" points="5250.82,-190 5085.18,-190 5085.18,-154 5250.82,-154 5250.82,-190"/>
<text text-anchor="middle" x="5168" y="-167.8" font-family="Times,serif" font-size="14.00">PageNotFoundComponent</text>
</g>
<!-- PageNotFoundComponent&#45;&gt;HomeModule -->
<g id="edge33" class="edge">
<title>PageNotFoundComponent&#45;&gt;HomeModule</title>
<path fill="none" stroke="black" d="M5168,-190.04C5168,-211.66 5168,-245 5168,-245 5168,-245 4819.85,-245 4819.85,-245"/>
<polygon fill="black" stroke="black" points="4819.85,-241.5 4809.85,-245 4819.85,-248.5 4819.85,-241.5"/>
</g>
<!-- CarsdataCardComponent  -->
<g id="node36" class="node">
<title>CarsdataCardComponent </title>
<polygon fill="#fb8072" stroke="black" points="4922.52,-334 4761.48,-334 4761.48,-298 4922.52,-298 4922.52,-334"/>
<text text-anchor="middle" x="4842" y="-311.8" font-family="Times,serif" font-size="14.00">CarsdataCardComponent </text>
</g>
<!-- HomeModule&#45;&gt;CarsdataCardComponent  -->
<g id="edge37" class="edge">
<title>HomeModule&#45;&gt;CarsdataCardComponent </title>
<path fill="none" stroke="black" stroke-dasharray="5,2" d="M4785.69,-266.22C4785.69,-266.22 4785.69,-287.73 4785.69,-287.73"/>
<polygon fill="black" stroke="black" points="4782.19,-287.73 4785.69,-297.73 4789.19,-287.73 4782.19,-287.73"/>
</g>
<!-- HomeComponent  -->
<g id="node37" class="node">
<title>HomeComponent </title>
<polygon fill="#fb8072" stroke="black" points="4743.54,-334 4624.46,-334 4624.46,-298 4743.54,-298 4743.54,-334"/>
<text text-anchor="middle" x="4684" y="-311.8" font-family="Times,serif" font-size="14.00">HomeComponent </text>
</g>
<!-- HomeModule&#45;&gt;HomeComponent  -->
<g id="edge38" class="edge">
<title>HomeModule&#45;&gt;HomeComponent </title>
<path fill="none" stroke="black" stroke-dasharray="5,2" d="M4729.82,-266.22C4729.82,-266.22 4729.82,-287.73 4729.82,-287.73"/>
<polygon fill="black" stroke="black" points="4726.32,-287.73 4729.82,-297.73 4733.32,-287.73 4726.32,-287.73"/>
</g>
<!-- HomeModule&#45;&gt;SearchModule -->
<g id="edge45" class="edge">
<title>HomeModule&#45;&gt;SearchModule</title>
<path fill="none" stroke="black" d="M4809.97,-259C4872,-259 4973.47,-259 4973.47,-259 4973.47,-259 4973.47,-316 4973.47,-316 4973.47,-316 5844.33,-316 5844.33,-316"/>
<polygon fill="black" stroke="black" points="5844.33,-319.5 5854.33,-316 5844.33,-312.5 5844.33,-319.5"/>
</g>
<!-- HomeRoutingModule -->
<g id="node34" class="node">
<title>HomeRoutingModule</title>
<polygon fill="#8dd3c7" stroke="black" points="4398.38,-190 4395.38,-194 4374.38,-194 4371.38,-190 4259.62,-190 4259.62,-154 4398.38,-154 4398.38,-190"/>
<text text-anchor="middle" x="4329" y="-167.8" font-family="Times,serif" font-size="14.00">HomeRoutingModule</text>
</g>
<!-- HomeRoutingModule&#45;&gt;HomeModule -->
<g id="edge34" class="edge">
<title>HomeRoutingModule&#45;&gt;HomeModule</title>
<path fill="none" stroke="black" d="M4329,-190.03C4329,-209.58 4329,-238 4329,-238 4329,-238 4706.14,-238 4706.14,-238"/>
<polygon fill="black" stroke="black" points="4706.14,-241.5 4716.14,-238 4706.14,-234.5 4706.14,-241.5"/>
</g>
<!-- NgOptimizedImage -->
<g id="node35" class="node">
<title>NgOptimizedImage</title>
<polygon fill="#8dd3c7" stroke="black" points="4241.69,-190 4238.69,-194 4217.69,-194 4214.69,-190 4114.31,-190 4114.31,-154 4241.69,-154 4241.69,-190"/>
<text text-anchor="middle" x="4178" y="-167.8" font-family="Times,serif" font-size="14.00">NgOptimizedImage</text>
</g>
<!-- NgOptimizedImage&#45;&gt;HomeModule -->
<g id="edge36" class="edge">
<title>NgOptimizedImage&#45;&gt;HomeModule</title>
<path fill="none" stroke="black" d="M4178,-190.03C4178,-210.77 4178,-242 4178,-242 4178,-242 4706.12,-242 4706.12,-242"/>
<polygon fill="black" stroke="black" points="4706.12,-245.5 4716.12,-242 4706.12,-238.5 4706.12,-245.5"/>
</g>
<!-- MyOrdersComponent -->
<g id="node38" class="node">
<title>MyOrdersComponent</title>
<polygon fill="#ffffb3" stroke="black" points="328.36,-190 189.64,-190 189.64,-154 328.36,-154 328.36,-190"/>
<text text-anchor="middle" x="259" y="-167.8" font-family="Times,serif" font-size="14.00">MyOrdersComponent</text>
</g>
<!-- MyOrdersComponent&#45;&gt;OrdersModule -->
<g id="edge39" class="edge">
<title>MyOrdersComponent&#45;&gt;OrdersModule</title>
<path fill="none" stroke="black" d="M207.69,-190.01C207.69,-190.01 207.69,-219.85 207.69,-219.85"/>
<polygon fill="black" stroke="black" points="204.19,-219.85 207.69,-229.85 211.19,-219.85 204.19,-219.85"/>
</g>
<!-- OrdersRoutingModule -->
<g id="node40" class="node">
<title>OrdersRoutingModule</title>
<polygon fill="#8dd3c7" stroke="black" points="166.25,-190 163.25,-194 142.25,-194 139.25,-190 23.75,-190 23.75,-154 166.25,-154 166.25,-190"/>
<text text-anchor="middle" x="95" y="-167.8" font-family="Times,serif" font-size="14.00">OrdersRoutingModule</text>
</g>
<!-- OrdersRoutingModule&#45;&gt;OrdersModule -->
<g id="edge41" class="edge">
<title>OrdersRoutingModule&#45;&gt;OrdersModule</title>
<path fill="none" stroke="black" d="M147.28,-190.01C147.28,-190.01 147.28,-219.85 147.28,-219.85"/>
<polygon fill="black" stroke="black" points="143.78,-219.85 147.28,-229.85 150.78,-219.85 143.78,-219.85"/>
</g>
<!-- CarSearchResultComponent -->
<g id="node41" class="node">
<title>CarSearchResultComponent</title>
<polygon fill="#ffffb3" stroke="black" points="6188.91,-266 6013.09,-266 6013.09,-230 6188.91,-230 6188.91,-266"/>
<text text-anchor="middle" x="6101" y="-243.8" font-family="Times,serif" font-size="14.00">CarSearchResultComponent</text>
</g>
<!-- CarSearchResultComponent&#45;&gt;SearchModule -->
<g id="edge43" class="edge">
<title>CarSearchResultComponent&#45;&gt;SearchModule</title>
<path fill="none" stroke="black" d="M6101,-266.22C6101,-286.37 6101,-316 6101,-316 6101,-316 5961.69,-316 5961.69,-316"/>
<polygon fill="black" stroke="black" points="5961.69,-312.5 5951.69,-316 5961.69,-319.5 5961.69,-312.5"/>
</g>
<!-- SearchRoutingModule -->
<g id="node43" class="node">
<title>SearchRoutingModule</title>
<polygon fill="#8dd3c7" stroke="black" points="5989.25,-266 5986.25,-270 5965.25,-270 5962.25,-266 5846.75,-266 5846.75,-230 5989.25,-230 5989.25,-266"/>
<text text-anchor="middle" x="5918" y="-243.8" font-family="Times,serif" font-size="14.00">SearchRoutingModule</text>
</g>
<!-- SearchRoutingModule&#45;&gt;SearchModule -->
<g id="edge46" class="edge">
<title>SearchRoutingModule&#45;&gt;SearchModule</title>
<path fill="none" stroke="black" d="M5919.27,-266.22C5919.27,-266.22 5919.27,-287.73 5919.27,-287.73"/>
<polygon fill="black" stroke="black" points="5915.77,-287.73 5919.27,-297.73 5922.77,-287.73 5915.77,-287.73"/>
</g>
<!-- ActionColumnComponent -->
<g id="node44" class="node">
<title>ActionColumnComponent</title>
<polygon fill="#ffffb3" stroke="black" points="1377.05,-266 1212.95,-266 1212.95,-230 1377.05,-230 1377.05,-266"/>
<text text-anchor="middle" x="1295" y="-243.8" font-family="Times,serif" font-size="14.00">ActionColumnComponent</text>
</g>
<!-- ActionColumnComponent&#45;&gt;SharedModule -->
<g id="edge47" class="edge">
<title>ActionColumnComponent&#45;&gt;SharedModule</title>
<path fill="none" stroke="black" d="M1295,-229.78C1295,-211.17 1295,-185 1295,-185 1295,-185 1580.57,-185 1580.57,-185"/>
<polygon fill="black" stroke="black" points="1580.57,-188.5 1590.57,-185 1580.57,-181.5 1580.57,-188.5"/>
</g>
<!-- TableHeadersDropdownComponent -->
<g id="node45" class="node">
<title>TableHeadersDropdownComponent</title>
<polygon fill="#ffffb3" stroke="black" points="1194.43,-266 975.57,-266 975.57,-230 1194.43,-230 1194.43,-266"/>
<text text-anchor="middle" x="1085" y="-243.8" font-family="Times,serif" font-size="14.00">TableHeadersDropdownComponent</text>
</g>
<!-- TableHeadersDropdownComponent&#45;&gt;SharedModule -->
<g id="edge48" class="edge">
<title>TableHeadersDropdownComponent&#45;&gt;SharedModule</title>
<path fill="none" stroke="black" d="M1085,-229.78C1085,-209.63 1085,-180 1085,-180 1085,-180 1580.75,-180 1580.75,-180"/>
<polygon fill="black" stroke="black" points="1580.75,-183.5 1590.75,-180 1580.75,-176.5 1580.75,-183.5"/>
</g>
<!-- TabularViewComponent -->
<g id="node46" class="node">
<title>TabularViewComponent</title>
<polygon fill="#ffffb3" stroke="black" points="1550.68,-266 1395.32,-266 1395.32,-230 1550.68,-230 1550.68,-266"/>
<text text-anchor="middle" x="1473" y="-243.8" font-family="Times,serif" font-size="14.00">TabularViewComponent</text>
</g>
<!-- TabularViewComponent&#45;&gt;SharedModule -->
<g id="edge49" class="edge">
<title>TabularViewComponent&#45;&gt;SharedModule</title>
<path fill="none" stroke="black" d="M1550.63,-257C1594.24,-257 1640,-257 1640,-257 1640,-257 1640,-200.03 1640,-200.03"/>
<polygon fill="black" stroke="black" points="1643.5,-200.03 1640,-190.03 1636.5,-200.03 1643.5,-200.03"/>
</g>
</g>
</svg>
