<?xml version="1.0" encoding="UTF-8" standalone="no"?>
<!DOCTYPE svg PUBLIC "-//W3C//DTD SVG 1.1//EN"
 "http://www.w3.org/Graphics/SVG/1.1/DTD/svg11.dtd">
<!-- Generated by graphviz version 2.47.0 (20210316.0004)
 -->
<!-- Title: dependencies Pages: 1 -->
<svg width="1452pt" height="284pt"
 viewBox="0.00 0.00 1452.00 284.00" xmlns="http://www.w3.org/2000/svg" xmlns:xlink="http://www.w3.org/1999/xlink">
<g id="graph0" class="graph" transform="scale(1 1) rotate(0) translate(4 280)">
<title>dependencies</title>
<polygon fill="white" stroke="transparent" points="-4,4 -4,-280 1448,-280 1448,4 -4,4"/>
<text text-anchor="start" x="701.01" y="-42.4" font-family="Times-12" font-weight="bold" font-size="14.00">Legend</text>
<polygon fill="#ffffb3" stroke="transparent" points="488,-10 488,-30 508,-30 508,-10 488,-10"/>
<text text-anchor="start" x="511.63" y="-15.4" font-family="Times-12" font-size="14.00"> &#160;Declarations</text>
<polygon fill="#8dd3c7" stroke="transparent" points="601,-10 601,-30 621,-30 621,-10 601,-10"/>
<text text-anchor="start" x="624.73" y="-15.4" font-family="Times-12" font-size="14.00"> &#160;Module</text>
<polygon fill="#80b1d3" stroke="transparent" points="687,-10 687,-30 707,-30 707,-10 687,-10"/>
<text text-anchor="start" x="710.78" y="-15.4" font-family="Times-12" font-size="14.00"> &#160;Bootstrap</text>
<polygon fill="#fdb462" stroke="transparent" points="784,-10 784,-30 804,-30 804,-10 784,-10"/>
<text text-anchor="start" x="807.67" y="-15.4" font-family="Times-12" font-size="14.00"> &#160;Providers</text>
<polygon fill="#fb8072" stroke="transparent" points="880,-10 880,-30 900,-30 900,-10 880,-10"/>
<text text-anchor="start" x="903.73" y="-15.4" font-family="Times-12" font-size="14.00"> &#160;Exports</text>
<g id="clust1" class="cluster">
<title>cluster_HomeModule</title>
<polygon fill="none" stroke="black" stroke-dasharray="1,5" points="8,-70 8,-268 1436,-268 1436,-70 8,-70"/>
</g>
<g id="clust2" class="cluster">
<title>cluster_HomeModule_declarations</title>
<polygon fill="none" stroke="black" points="449,-78 449,-130 1428,-130 1428,-78 449,-78"/>
</g>
<g id="clust10" class="cluster">
<title>cluster_HomeModule_exports</title>
<polygon fill="none" stroke="black" points="551,-208 551,-260 866,-260 866,-208 551,-208"/>
</g>
<g id="clust9" class="cluster">
<title>cluster_HomeModule_imports</title>
<polygon fill="none" stroke="black" points="16,-78 16,-130 441,-130 441,-78 16,-78"/>
</g>
<!-- CarBrandsComponent -->
<g id="node1" class="node">
<title>CarBrandsComponent</title>
<polygon fill="#ffffb3" stroke="black" points="1419.7,-122 1278.3,-122 1278.3,-86 1419.7,-86 1419.7,-122"/>
<text text-anchor="middle" x="1349" y="-99.8" font-family="Times,serif" font-size="14.00">CarBrandsComponent</text>
</g>
<!-- HomeModule -->
<g id="node7" class="node">
<title>HomeModule</title>
<polygon fill="#8dd3c7" stroke="black" points="744.76,-187 741.76,-191 720.76,-191 717.76,-187 651.24,-187 651.24,-151 744.76,-151 744.76,-187"/>
<text text-anchor="middle" x="698" y="-164.8" font-family="Times,serif" font-size="14.00">HomeModule</text>
</g>
<!-- CarBrandsComponent&#45;&gt;HomeModule -->
<g id="edge1" class="edge">
<title>CarBrandsComponent&#45;&gt;HomeModule</title>
<path fill="none" stroke="black" d="M1349,-122.01C1349,-144.49 1349,-180 1349,-180 1349,-180 754.82,-180 754.82,-180"/>
<polygon fill="black" stroke="black" points="754.82,-176.5 744.82,-180 754.82,-183.5 754.82,-176.5"/>
</g>
<!-- CarsListComponent -->
<g id="node2" class="node">
<title>CarsListComponent</title>
<polygon fill="#ffffb3" stroke="black" points="1260.27,-122 1131.73,-122 1131.73,-86 1260.27,-86 1260.27,-122"/>
<text text-anchor="middle" x="1196" y="-99.8" font-family="Times,serif" font-size="14.00">CarsListComponent</text>
</g>
<!-- CarsListComponent&#45;&gt;HomeModule -->
<g id="edge2" class="edge">
<title>CarsListComponent&#45;&gt;HomeModule</title>
<path fill="none" stroke="black" d="M1196,-122.13C1196,-142.57 1196,-173 1196,-173 1196,-173 754.85,-173 754.85,-173"/>
<polygon fill="black" stroke="black" points="754.85,-169.5 744.85,-173 754.85,-176.5 754.85,-169.5"/>
</g>
<!-- CarsdataCardComponent -->
<g id="node3" class="node">
<title>CarsdataCardComponent</title>
<polygon fill="#ffffb3" stroke="black" points="1113.52,-122 956.48,-122 956.48,-86 1113.52,-86 1113.52,-122"/>
<text text-anchor="middle" x="1035" y="-99.8" font-family="Times,serif" font-size="14.00">CarsdataCardComponent</text>
</g>
<!-- CarsdataCardComponent&#45;&gt;HomeModule -->
<g id="edge3" class="edge">
<title>CarsdataCardComponent&#45;&gt;HomeModule</title>
<path fill="none" stroke="black" d="M1035,-122.27C1035,-140.56 1035,-166 1035,-166 1035,-166 754.86,-166 754.86,-166"/>
<polygon fill="black" stroke="black" points="754.86,-162.5 744.86,-166 754.86,-169.5 754.86,-162.5"/>
</g>
<!-- DataNotFoundComponent -->
<g id="node4" class="node">
<title>DataNotFoundComponent</title>
<polygon fill="#ffffb3" stroke="black" points="938.04,-122 773.96,-122 773.96,-86 938.04,-86 938.04,-122"/>
<text text-anchor="middle" x="856" y="-99.8" font-family="Times,serif" font-size="14.00">DataNotFoundComponent</text>
</g>
<!-- DataNotFoundComponent&#45;&gt;HomeModule -->
<g id="edge4" class="edge">
<title>DataNotFoundComponent&#45;&gt;HomeModule</title>
<path fill="none" stroke="black" d="M815.62,-122.01C815.62,-138.05 815.62,-159 815.62,-159 815.62,-159 754.82,-159 754.82,-159"/>
<polygon fill="black" stroke="black" points="754.82,-155.5 744.82,-159 754.82,-162.5 754.82,-155.5"/>
</g>
<!-- HomeComponent -->
<g id="node5" class="node">
<title>HomeComponent</title>
<polygon fill="#ffffb3" stroke="black" points="755.55,-122 640.45,-122 640.45,-86 755.55,-86 755.55,-122"/>
<text text-anchor="middle" x="698" y="-99.8" font-family="Times,serif" font-size="14.00">HomeComponent</text>
</g>
<!-- HomeComponent&#45;&gt;HomeModule -->
<g id="edge5" class="edge">
<title>HomeComponent&#45;&gt;HomeModule</title>
<path fill="none" stroke="black" d="M698,-122.11C698,-122.11 698,-140.99 698,-140.99"/>
<polygon fill="black" stroke="black" points="694.5,-140.99 698,-150.99 701.5,-140.99 694.5,-140.99"/>
</g>
<!-- PageNotFoundComponent -->
<g id="node6" class="node">
<title>PageNotFoundComponent</title>
<polygon fill="#ffffb3" stroke="black" points="622.82,-122 457.18,-122 457.18,-86 622.82,-86 622.82,-122"/>
<text text-anchor="middle" x="540" y="-99.8" font-family="Times,serif" font-size="14.00">PageNotFoundComponent</text>
</g>
<!-- PageNotFoundComponent&#45;&gt;HomeModule -->
<g id="edge6" class="edge">
<title>PageNotFoundComponent&#45;&gt;HomeModule</title>
<path fill="none" stroke="black" d="M591.07,-122.01C591.07,-138.05 591.07,-159 591.07,-159 591.07,-159 641.1,-159 641.1,-159"/>
<polygon fill="black" stroke="black" points="641.1,-162.5 651.1,-159 641.1,-155.5 641.1,-162.5"/>
</g>
<!-- CarsdataCardComponent  -->
<g id="node11" class="node">
<title>CarsdataCardComponent </title>
<polygon fill="#fb8072" stroke="black" points="857.52,-252 696.48,-252 696.48,-216 857.52,-216 857.52,-252"/>
<text text-anchor="middle" x="777" y="-229.8" font-family="Times,serif" font-size="14.00">CarsdataCardComponent </text>
</g>
<!-- HomeModule&#45;&gt;CarsdataCardComponent  -->
<g id="edge10" class="edge">
<title>HomeModule&#45;&gt;CarsdataCardComponent </title>
<path fill="none" stroke="black" stroke-dasharray="5,2" d="M720.69,-187.11C720.69,-187.11 720.69,-205.99 720.69,-205.99"/>
<polygon fill="black" stroke="black" points="717.19,-205.99 720.69,-215.99 724.19,-205.99 717.19,-205.99"/>
</g>
<!-- HomeComponent  -->
<g id="node12" class="node">
<title>HomeComponent </title>
<polygon fill="#fb8072" stroke="black" points="678.54,-252 559.46,-252 559.46,-216 678.54,-216 678.54,-252"/>
<text text-anchor="middle" x="619" y="-229.8" font-family="Times,serif" font-size="14.00">HomeComponent </text>
</g>
<!-- HomeModule&#45;&gt;HomeComponent  -->
<g id="edge11" class="edge">
<title>HomeModule&#45;&gt;HomeComponent </title>
<path fill="none" stroke="black" stroke-dasharray="5,2" d="M664.82,-187.11C664.82,-187.11 664.82,-205.99 664.82,-205.99"/>
<polygon fill="black" stroke="black" points="661.32,-205.99 664.82,-215.99 668.32,-205.99 661.32,-205.99"/>
</g>
<!-- HomeRoutingModule -->
<g id="node8" class="node">
<title>HomeRoutingModule</title>
<polygon fill="#8dd3c7" stroke="black" points="433.38,-122 430.38,-126 409.38,-126 406.38,-122 294.62,-122 294.62,-86 433.38,-86 433.38,-122"/>
<text text-anchor="middle" x="364" y="-99.8" font-family="Times,serif" font-size="14.00">HomeRoutingModule</text>
</g>
<!-- HomeRoutingModule&#45;&gt;HomeModule -->
<g id="edge7" class="edge">
<title>HomeRoutingModule&#45;&gt;HomeModule</title>
<path fill="none" stroke="black" d="M364,-122.27C364,-140.56 364,-166 364,-166 364,-166 641.21,-166 641.21,-166"/>
<polygon fill="black" stroke="black" points="641.21,-169.5 651.21,-166 641.21,-162.5 641.21,-169.5"/>
</g>
<!-- MaterialModule -->
<g id="node9" class="node">
<title>MaterialModule</title>
<polygon fill="#8dd3c7" stroke="black" points="276.47,-122 273.47,-126 252.47,-126 249.47,-122 169.53,-122 169.53,-86 276.47,-86 276.47,-122"/>
<text text-anchor="middle" x="223" y="-99.8" font-family="Times,serif" font-size="14.00">MaterialModule</text>
</g>
<!-- MaterialModule&#45;&gt;HomeModule -->
<g id="edge8" class="edge">
<title>MaterialModule&#45;&gt;HomeModule</title>
<path fill="none" stroke="black" d="M223,-122.13C223,-142.57 223,-173 223,-173 223,-173 641.16,-173 641.16,-173"/>
<polygon fill="black" stroke="black" points="641.16,-176.5 651.16,-173 641.16,-169.5 641.16,-176.5"/>
</g>
<!-- NgOptimizedImage -->
<g id="node10" class="node">
<title>NgOptimizedImage</title>
<polygon fill="#8dd3c7" stroke="black" points="151.69,-122 148.69,-126 127.69,-126 124.69,-122 24.31,-122 24.31,-86 151.69,-86 151.69,-122"/>
<text text-anchor="middle" x="88" y="-99.8" font-family="Times,serif" font-size="14.00">NgOptimizedImage</text>
</g>
<!-- NgOptimizedImage&#45;&gt;HomeModule -->
<g id="edge9" class="edge">
<title>NgOptimizedImage&#45;&gt;HomeModule</title>
<path fill="none" stroke="black" d="M88,-122.01C88,-144.49 88,-180 88,-180 88,-180 641.15,-180 641.15,-180"/>
<polygon fill="black" stroke="black" points="641.15,-183.5 651.15,-180 641.15,-176.5 641.15,-183.5"/>
</g>
</g>
</svg>
