<?xml version="1.0" encoding="UTF-8" standalone="no"?>
<!DOCTYPE svg PUBLIC "-//W3C//DTD SVG 1.1//EN"
 "http://www.w3.org/Graphics/SVG/1.1/DTD/svg11.dtd">
<!-- Generated by graphviz version 2.47.0 (20210316.0004)
 -->
<!-- Title: dependencies Pages: 1 -->
<svg width="648pt" height="211pt"
 viewBox="0.00 0.00 648.00 211.00" xmlns="http://www.w3.org/2000/svg" xmlns:xlink="http://www.w3.org/1999/xlink">
<g id="graph0" class="graph" transform="scale(1 1) rotate(0) translate(4 207)">
<title>dependencies</title>
<polygon fill="white" stroke="transparent" points="-4,4 -4,-207 644,-207 644,4 -4,4"/>
<text text-anchor="start" x="299.01" y="-42.4" font-family="Times-12" font-weight="bold" font-size="14.00">Legend</text>
<polygon fill="#ffffb3" stroke="transparent" points="86,-10 86,-30 106,-30 106,-10 86,-10"/>
<text text-anchor="start" x="109.63" y="-15.4" font-family="Times-12" font-size="14.00"> &#160;Declarations</text>
<polygon fill="#8dd3c7" stroke="transparent" points="199,-10 199,-30 219,-30 219,-10 199,-10"/>
<text text-anchor="start" x="222.73" y="-15.4" font-family="Times-12" font-size="14.00"> &#160;Module</text>
<polygon fill="#80b1d3" stroke="transparent" points="285,-10 285,-30 305,-30 305,-10 285,-10"/>
<text text-anchor="start" x="308.78" y="-15.4" font-family="Times-12" font-size="14.00"> &#160;Bootstrap</text>
<polygon fill="#fdb462" stroke="transparent" points="382,-10 382,-30 402,-30 402,-10 382,-10"/>
<text text-anchor="start" x="405.67" y="-15.4" font-family="Times-12" font-size="14.00"> &#160;Providers</text>
<polygon fill="#fb8072" stroke="transparent" points="478,-10 478,-30 498,-30 498,-10 478,-10"/>
<text text-anchor="start" x="501.73" y="-15.4" font-family="Times-12" font-size="14.00"> &#160;Exports</text>
<g id="clust1" class="cluster">
<title>cluster_SearchModule</title>
<polygon fill="none" stroke="black" stroke-dasharray="1,5" points="8,-70 8,-195 632,-195 632,-70 8,-70"/>
</g>
<g id="clust2" class="cluster">
<title>cluster_SearchModule_declarations</title>
<polygon fill="none" stroke="black" points="432,-78 432,-130 624,-130 624,-78 432,-78"/>
</g>
<g id="clust4" class="cluster">
<title>cluster_SearchModule_imports</title>
<polygon fill="none" stroke="black" points="16,-78 16,-130 424,-130 424,-78 16,-78"/>
</g>
<!-- CarSearchResultComponent -->
<g id="node1" class="node">
<title>CarSearchResultComponent</title>
<polygon fill="#ffffb3" stroke="black" points="615.91,-122 440.09,-122 440.09,-86 615.91,-86 615.91,-122"/>
<text text-anchor="middle" x="528" y="-99.8" font-family="Times,serif" font-size="14.00">CarSearchResultComponent</text>
</g>
<!-- SearchModule -->
<g id="node2" class="node">
<title>SearchModule</title>
<polygon fill="#8dd3c7" stroke="black" points="341.64,-187 338.64,-191 317.64,-191 314.64,-187 244.36,-187 244.36,-151 341.64,-151 341.64,-187"/>
<text text-anchor="middle" x="293" y="-164.8" font-family="Times,serif" font-size="14.00">SearchModule</text>
</g>
<!-- CarSearchResultComponent&#45;&gt;SearchModule -->
<g id="edge1" class="edge">
<title>CarSearchResultComponent&#45;&gt;SearchModule</title>
<path fill="none" stroke="black" d="M528,-122.11C528,-141.34 528,-169 528,-169 528,-169 351.69,-169 351.69,-169"/>
<polygon fill="black" stroke="black" points="351.69,-165.5 341.69,-169 351.69,-172.5 351.69,-165.5"/>
</g>
<!-- DashboardModule -->
<g id="node3" class="node">
<title>DashboardModule</title>
<polygon fill="#8dd3c7" stroke="black" points="416.19,-122 413.19,-126 392.19,-126 389.19,-122 295.81,-122 295.81,-86 416.19,-86 416.19,-122"/>
<text text-anchor="middle" x="356" y="-99.8" font-family="Times,serif" font-size="14.00">DashboardModule</text>
</g>
<!-- DashboardModule&#45;&gt;SearchModule -->
<g id="edge2" class="edge">
<title>DashboardModule&#45;&gt;SearchModule</title>
<path fill="none" stroke="black" d="M318.86,-122.11C318.86,-122.11 318.86,-140.99 318.86,-140.99"/>
<polygon fill="black" stroke="black" points="315.36,-140.99 318.86,-150.99 322.36,-140.99 315.36,-140.99"/>
</g>
<!-- HomeModule -->
<g id="node4" class="node">
<title>HomeModule</title>
<polygon fill="#8dd3c7" stroke="black" points="277.76,-122 274.76,-126 253.76,-126 250.76,-122 184.24,-122 184.24,-86 277.76,-86 277.76,-122"/>
<text text-anchor="middle" x="231" y="-99.8" font-family="Times,serif" font-size="14.00">HomeModule</text>
</g>
<!-- HomeModule&#45;&gt;SearchModule -->
<g id="edge3" class="edge">
<title>HomeModule&#45;&gt;SearchModule</title>
<path fill="none" stroke="black" d="M261.03,-122.11C261.03,-122.11 261.03,-140.99 261.03,-140.99"/>
<polygon fill="black" stroke="black" points="257.53,-140.99 261.03,-150.99 264.53,-140.99 257.53,-140.99"/>
</g>
<!-- SearchRoutingModule -->
<g id="node5" class="node">
<title>SearchRoutingModule</title>
<polygon fill="#8dd3c7" stroke="black" points="166.25,-122 163.25,-126 142.25,-126 139.25,-122 23.75,-122 23.75,-86 166.25,-86 166.25,-122"/>
<text text-anchor="middle" x="95" y="-99.8" font-family="Times,serif" font-size="14.00">SearchRoutingModule</text>
</g>
<!-- SearchRoutingModule&#45;&gt;SearchModule -->
<g id="edge4" class="edge">
<title>SearchRoutingModule&#45;&gt;SearchModule</title>
<path fill="none" stroke="black" d="M95,-122.11C95,-141.34 95,-169 95,-169 95,-169 234.31,-169 234.31,-169"/>
<polygon fill="black" stroke="black" points="234.31,-172.5 244.31,-169 234.31,-165.5 234.31,-172.5"/>
</g>
</g>
</svg>
